<region> region_label=01_rr1 seq_position=1 key=36 sample=bar_f_01.$EXT tune=-7
<region> region_label=02_rr1 seq_position=1 key=37 sample=bar_f_02.$EXT tune=-10
<region> region_label=03_rr1 seq_position=1 key=38 sample=bar_f_03.$EXT tune=1
<region> region_label=04_rr1 seq_position=1 key=39 sample=bar_f_04.$EXT tune=-5
<region> region_label=05_rr1 seq_position=1 key=40 sample=bar_f_05.$EXT
<region> region_label=06_rr1 seq_position=1 key=41 sample=bar_f_06.$EXT tune=-3
<region> region_label=07_rr1 seq_position=1 key=42 sample=bar_f_07.$EXT tune=4
<region> region_label=08_rr1 seq_position=1 key=43 sample=bar_f_08.$EXT tune=4
<region> region_label=09_rr1 seq_position=1 key=44 sample=bar_f_09.$EXT tune=5
<region> region_label=10_rr1 seq_position=1 key=45 sample=bar_f_10.$EXT tune=6
<region> region_label=11_rr1 seq_position=1 key=46 sample=bar_f_11.$EXT tune=3
<region> region_label=12_rr1 seq_position=1 key=47 sample=bar_f_12.$EXT tune=5
<region> region_label=13_rr1 seq_position=1 key=48 sample=bar_f_13.$EXT tune=9
<region> region_label=14_rr1 seq_position=1 key=49 sample=bar_f_14.$EXT tune=2
<region> region_label=15_rr1 seq_position=1 key=50 sample=bar_f_15.$EXT tune=14
<region> region_label=16_rr1 seq_position=1 key=51 sample=bar_f_16.$EXT tune=18
<region> region_label=17_rr1 seq_position=1 key=52 sample=bar_f_17.$EXT tune=17
<region> region_label=18_rr1 seq_position=1 key=53 sample=bar_f_18.$EXT volume=-2 tune=-12
<region> region_label=19_rr1 seq_position=1 key=54 sample=bar_f_19.$EXT volume=0.5 tune=-9
<region> region_label=20_rr1 seq_position=1 key=55 sample=bar_f_20.$EXT tune=-5
<region> region_label=21_rr1 seq_position=1 key=56 sample=bar_f_21.$EXT volume=-1 tune=-14
<region> region_label=22_rr1 seq_position=1 key=57 sample=bar_f_22.$EXT volume=-1 tune=1
<region> region_label=23_rr1 seq_position=1 key=58 sample=bar_f_23.$EXT tune=-2
<region> region_label=24_rr1 seq_position=1 key=59 sample=bar_f_24.$EXT tune=-1
<region> region_label=25_rr1 seq_position=1 key=60 sample=bar_f_25.$EXT volume=2 tune=7
<region> region_label=26_rr1 seq_position=1 key=61 sample=bar_f_26.$EXT volume=-1 tune=3
<region> region_label=27_rr1 seq_position=1 key=62 sample=bar_f_27.$EXT tune=-9
<region> region_label=28_rr1 seq_position=1 key=63 sample=bar_f_28.$EXT tune=-16
<region> region_label=29_rr1 seq_position=1 key=64 sample=bar_f_29.$EXT tune=-22
<region> region_label=30_rr1 seq_position=1 key=65 sample=bar_f_30.$EXT volume=-1 tune=-19
<region> region_label=31_rr1 seq_position=1 key=66 sample=bar_f_31.$EXT volume=-1 tune=-17
<region> region_label=32_rr1 seq_position=1 key=67 sample=bar_f_32.$EXT volume=-1 tune=-32
<region> region_label=33_rr1 seq_position=1 key=68 sample=bar_f_33.$EXT volume=-3.5 tune=-22
<region> region_label=34_rr1 seq_position=1 key=69 sample=bar_f_34.$EXT volume=-1 tune=-36